<svg xmlns="http://www.w3.org/2000/svg" width="24" height="24"><g fill="none" fill-rule="evenodd"><circle cx="12" cy="12" r="12" fill="#19B369"/><path fill="#FFF" d="M12 24C5.373 24 0 18.627 0 12S5.373 0 12 0v24z" opacity=".202"/><g fill="#FFF"><path d="M11.095 17.327l.25 2.437a.78.78 0 00.585.236c.5 0 .834-.393.834-.707V5.065c0-.471-.417-.707-.834-.707-.501-.079-.835.314-.835.629v12.34zm3.569-1.287a.807.807 0 00.203 1.152c.387.27.88.183 1.151-.203l2.777-3.965a.807.807 0 00-.203-1.151.807.807 0 00-1.151.203l-2.777 3.965z"/><path d="M12.514 19.75a.807.807 0 000-1.17l-5.93-6.454a.807.807 0 00-1.168 0 .807.807 0 000 1.169l5.93 6.455a.807.807 0 001.168 0z"/></g></g></svg>